<?xml version="1.0" encoding="UTF-8"?>
<svg width="2000px" height="2000px" viewBox="0 0 2000 2000" version="1.1" xmlns="http://www.w3.org/2000/svg" xmlns:xlink="http://www.w3.org/1999/xlink">
    <title>ICON-wht_svg@1x</title>
    <g id="ICON-wht_svg" stroke="none" stroke-width="1" fill="none" fill-rule="evenodd">
        <g id="ICON-wht_svg@1x" transform="translate(306.000000, 225.000000)" fill-rule="nonzero">
            <g id="Combined-Shape" transform="translate(0.000000, 266.900000)">
                <g id="path-1-link" fill="#000000">
                    <path d="M423.809935,0.1 C597.978402,0.1 774.082073,60.0654577 837.943844,152.915199 C859.231102,185.799482 868.907127,212.880656 868.907127,238.027461 C868.907127,267.043005 855.360691,292.18981 824.397408,311.533506 C795.36933,328.942832 766.341253,336.680311 737.313175,336.680311 C692.803456,336.680311 642.488121,315.402245 568.950324,272.846114 C493.477322,228.355613 462.514039,214.815026 431.550756,214.815026 L431.550756,214.815026 L429.830574,214.815812 C422.663147,214.82564 415.49572,214.958313 408.328294,216.749396 C379.300216,220.618135 350.272138,230.289983 338.660907,239.961831 C325.114471,251.568048 319.308855,268.977375 319.308855,290.25544 C319.308855,338.61468 350.272138,398.580138 394.781857,419.858204 C409.735716,427.331905 446.644557,438.270685 485.864449,449.104462 L485.864449,449.104462 L489.330525,450.060021 C493.380112,451.174309 497.448066,452.286371 501.512959,453.392314 L501.512959,453.392314 L504.995903,454.338676 C510.217696,455.755697 515.424308,457.160763 520.570194,458.545596 C820.526998,535.92038 896,590.082729 896,740.963558 L896,740.963558 L896,773.847841 C892.12959,824.141451 878.583153,891.844387 865.036717,920.859931 C806.980562,1038.85648 627.006479,1118.16563 410.263499,1120.1 L410.263499,1120.1 L396.717063,1120.1 C245.771058,1120.1 154.816415,1091.08446 71.6025918,1011.7753 C23.2224622,965.350432 -3.75166564e-12,932.466149 -3.75166564e-12,899.581865 C-3.75166564e-12,880.238169 7.74082073,860.894473 23.2224622,841.550777 C44.5097192,814.469603 81.2786177,802.863385 123.853132,802.863385 C166.427646,802.863385 214.807775,814.469603 265.12311,839.616408 C325.114471,870.566321 385.105832,884.106908 439.291577,884.106908 C510.894168,884.106908 568.950324,858.960104 590.237581,810.600864 C596.043197,797.060276 597.978402,789.322798 597.978402,779.65095 C597.978402,766.110363 592.172786,756.438515 578.62635,737.094819 C539.922246,684.866839 497.347732,665.523143 354.142549,640.376339 C216.742981,617.163903 147.075594,586.21399 90.9546436,526.248532 C30.9632829,460.479965 7.74082073,404.383247 7.74082073,309.599136 C7.74082073,156.783938 83.2138229,65.8685665 249.641469,21.3780656 C303.827214,5.90310881 363.818575,0.1 423.809935,0.1 Z M704.414687,665.523143 L704.386477,665.523143 C704.148102,665.533013 702.479482,665.661313 702.479482,667.457513 C702.479482,669.223677 704.092762,674.215008 705.846328,679.486789 L705.846328,679.486789 L706.349892,680.9981 C717.961123,717.751123 723.766739,750.635406 723.766739,781.58532 C723.766739,808.666494 719.896328,833.813299 710.220302,858.960104 C700.544276,886.041278 694.738661,901.516235 694.738661,907.319344 C694.738661,909.253713 694.738661,911.188083 696.673866,911.188083 C698.510671,911.188083 703.834292,905.960117 709.335209,900.466322 L710.220302,899.581865 C721.831533,887.975648 735.37797,841.550777 739.24838,795.125907 C741.034723,779.055759 741.172134,764.633832 741.182704,753.381559 L741.182704,753.381559 L741.183585,750.635406 C741.183585,717.751123 735.37797,700.341796 721.831533,684.866839 C712.155508,673.260622 706.349892,665.523143 704.414687,665.523143 L704.414687,665.523143 Z M828.267819,634.57323 C818.591793,634.57323 814.721382,648.113817 814.721382,677.129361 C814.721382,692.604318 816.656587,710.013644 818.591793,733.226079 C826.332613,814.469603 832.138229,855.091364 843.74946,855.091364 C847.61987,855.091364 853.425486,849.288256 857.295896,837.682038 C865.036717,818.338342 868.907127,781.58532 868.907127,746.766667 C868.907127,704.210535 863.101512,661.654404 853.425486,651.982556 C841.814255,640.376339 834.073434,634.57323 828.267819,634.57323 Z M646.358531,663.588774 C644.544276,663.588774 644.430886,663.588774 644.423326,665.182645 L644.423326,665.523143 C644.423326,669.391883 646.358531,677.129361 650.228942,690.669948 C656.034557,710.013644 663.775378,752.569775 667.645788,785.454059 C671.516199,820.272712 679.257019,837.682038 685.062635,837.682038 C692.803456,837.682038 700.544276,814.469603 700.544276,769.979102 C700.544276,725.488601 690.868251,702.276166 669.580994,682.93247 C656.034557,671.326252 650.228942,663.588774 646.358531,663.588774 Z M214.807775,154.849568 C183.844492,154.849568 152.88121,195.47133 135.464363,255.436788 C125.788337,290.25544 118.047516,307.664767 114.177106,307.664767 C112.375363,307.664767 112.251105,304.311246 112.242535,297.604205 L112.242535,297.604205 L112.242949,294.052546 C112.254763,286.100424 112.399668,273.518889 114.177106,259.305527 C115.930886,252.293437 116.095302,246.870024 116.110716,241.595549 L116.112252,240.505931 L116.112252,240.505931 L116.112311,239.961831 C116.112311,222.552504 112.241901,212.880656 106.436285,212.880656 C96.7602592,212.880656 85.1490281,232.224352 77.4082073,268.977375 C75.4730022,280.583592 73.537797,294.12418 73.537797,307.664767 C73.537797,359.892746 90.9546436,415.989465 119.982721,452.742487 C133.529158,470.151813 145.140389,477.889292 150.946004,477.889292 C154.816415,477.889292 156.75162,475.954922 156.75162,470.151813 C156.75162,462.414335 152.88121,448.873748 143.205184,429.530052 C131.593952,408.251986 123.853132,377.302073 123.853132,361.827116 L123.853132,361.827116 L123.853651,358.420363 C123.861187,351.430634 123.977984,346.352159 125.788337,346.352159 C127.723542,346.352159 131.593952,354.089637 137.399568,371.498964 C149.010799,412.120725 201.261339,479.823661 222.548596,479.823661 C224.362851,479.823661 224.476242,478.123532 224.483329,476.317144 L224.483801,475.954922 C224.483801,468.217444 218.678186,452.742487 207.066955,433.398791 C189.650108,404.383247 179.974082,363.761485 179.974082,325.074093 C179.974082,286.386701 189.650108,243.83057 207.066955,214.815026 C222.548596,189.668221 234.159827,166.455786 234.159827,162.587047 C234.159827,158.718307 226.419006,154.849568 214.807775,154.849568 Z M805.045356,187.733851 C801.174946,187.733851 799.239741,189.668221 799.239741,195.47133 C799.239741,203.208808 805.045356,212.880656 812.786177,218.683765 C816.656587,220.618135 820.526998,220.618135 822.462203,220.618135 C826.332613,220.618135 828.267819,218.683765 828.267819,212.880656 C828.267819,205.143178 820.526998,195.47133 812.786177,189.668221 C809.371109,187.961424 807.462689,187.760625 805.731521,187.737001 L805.731521,187.737001 L805.045356,187.733851 Z" id="path-1"></path>
                </g>
                <g id="path-1-link" fill="#FAFAFA">
                    <path d="M423.809935,0.1 C597.978402,0.1 774.082073,60.0654577 837.943844,152.915199 C859.231102,185.799482 868.907127,212.880656 868.907127,238.027461 C868.907127,267.043005 855.360691,292.18981 824.397408,311.533506 C795.36933,328.942832 766.341253,336.680311 737.313175,336.680311 C692.803456,336.680311 642.488121,315.402245 568.950324,272.846114 C493.477322,228.355613 462.514039,214.815026 431.550756,214.815026 L431.550756,214.815026 L429.830574,214.815812 C422.663147,214.82564 415.49572,214.958313 408.328294,216.749396 C379.300216,220.618135 350.272138,230.289983 338.660907,239.961831 C325.114471,251.568048 319.308855,268.977375 319.308855,290.25544 C319.308855,338.61468 350.272138,398.580138 394.781857,419.858204 C409.735716,427.331905 446.644557,438.270685 485.864449,449.104462 L485.864449,449.104462 L489.330525,450.060021 C493.380112,451.174309 497.448066,452.286371 501.512959,453.392314 L501.512959,453.392314 L504.995903,454.338676 C510.217696,455.755697 515.424308,457.160763 520.570194,458.545596 C820.526998,535.92038 896,590.082729 896,740.963558 L896,740.963558 L896,773.847841 C892.12959,824.141451 878.583153,891.844387 865.036717,920.859931 C806.980562,1038.85648 627.006479,1118.16563 410.263499,1120.1 L410.263499,1120.1 L396.717063,1120.1 C245.771058,1120.1 154.816415,1091.08446 71.6025918,1011.7753 C23.2224622,965.350432 -3.75166564e-12,932.466149 -3.75166564e-12,899.581865 C-3.75166564e-12,880.238169 7.74082073,860.894473 23.2224622,841.550777 C44.5097192,814.469603 81.2786177,802.863385 123.853132,802.863385 C166.427646,802.863385 214.807775,814.469603 265.12311,839.616408 C325.114471,870.566321 385.105832,884.106908 439.291577,884.106908 C510.894168,884.106908 568.950324,858.960104 590.237581,810.600864 C596.043197,797.060276 597.978402,789.322798 597.978402,779.65095 C597.978402,766.110363 592.172786,756.438515 578.62635,737.094819 C539.922246,684.866839 497.347732,665.523143 354.142549,640.376339 C216.742981,617.163903 147.075594,586.21399 90.9546436,526.248532 C30.9632829,460.479965 7.74082073,404.383247 7.74082073,309.599136 C7.74082073,156.783938 83.2138229,65.8685665 249.641469,21.3780656 C303.827214,5.90310881 363.818575,0.1 423.809935,0.1 Z M704.414687,665.523143 L704.386477,665.523143 C704.148102,665.533013 702.479482,665.661313 702.479482,667.457513 C702.479482,669.223677 704.092762,674.215008 705.846328,679.486789 L705.846328,679.486789 L706.349892,680.9981 C717.961123,717.751123 723.766739,750.635406 723.766739,781.58532 C723.766739,808.666494 719.896328,833.813299 710.220302,858.960104 C700.544276,886.041278 694.738661,901.516235 694.738661,907.319344 C694.738661,909.253713 694.738661,911.188083 696.673866,911.188083 C698.510671,911.188083 703.834292,905.960117 709.335209,900.466322 L710.220302,899.581865 C721.831533,887.975648 735.37797,841.550777 739.24838,795.125907 C741.034723,779.055759 741.172134,764.633832 741.182704,753.381559 L741.182704,753.381559 L741.183585,750.635406 C741.183585,717.751123 735.37797,700.341796 721.831533,684.866839 C712.155508,673.260622 706.349892,665.523143 704.414687,665.523143 L704.414687,665.523143 Z M828.267819,634.57323 C818.591793,634.57323 814.721382,648.113817 814.721382,677.129361 C814.721382,692.604318 816.656587,710.013644 818.591793,733.226079 C826.332613,814.469603 832.138229,855.091364 843.74946,855.091364 C847.61987,855.091364 853.425486,849.288256 857.295896,837.682038 C865.036717,818.338342 868.907127,781.58532 868.907127,746.766667 C868.907127,704.210535 863.101512,661.654404 853.425486,651.982556 C841.814255,640.376339 834.073434,634.57323 828.267819,634.57323 Z M646.358531,663.588774 C644.544276,663.588774 644.430886,663.588774 644.423326,665.182645 L644.423326,665.523143 C644.423326,669.391883 646.358531,677.129361 650.228942,690.669948 C656.034557,710.013644 663.775378,752.569775 667.645788,785.454059 C671.516199,820.272712 679.257019,837.682038 685.062635,837.682038 C692.803456,837.682038 700.544276,814.469603 700.544276,769.979102 C700.544276,725.488601 690.868251,702.276166 669.580994,682.93247 C656.034557,671.326252 650.228942,663.588774 646.358531,663.588774 Z M214.807775,154.849568 C183.844492,154.849568 152.88121,195.47133 135.464363,255.436788 C125.788337,290.25544 118.047516,307.664767 114.177106,307.664767 C112.375363,307.664767 112.251105,304.311246 112.242535,297.604205 L112.242535,297.604205 L112.242949,294.052546 C112.254763,286.100424 112.399668,273.518889 114.177106,259.305527 C115.930886,252.293437 116.095302,246.870024 116.110716,241.595549 L116.112252,240.505931 L116.112252,240.505931 L116.112311,239.961831 C116.112311,222.552504 112.241901,212.880656 106.436285,212.880656 C96.7602592,212.880656 85.1490281,232.224352 77.4082073,268.977375 C75.4730022,280.583592 73.537797,294.12418 73.537797,307.664767 C73.537797,359.892746 90.9546436,415.989465 119.982721,452.742487 C133.529158,470.151813 145.140389,477.889292 150.946004,477.889292 C154.816415,477.889292 156.75162,475.954922 156.75162,470.151813 C156.75162,462.414335 152.88121,448.873748 143.205184,429.530052 C131.593952,408.251986 123.853132,377.302073 123.853132,361.827116 L123.853132,361.827116 L123.853651,358.420363 C123.861187,351.430634 123.977984,346.352159 125.788337,346.352159 C127.723542,346.352159 131.593952,354.089637 137.399568,371.498964 C149.010799,412.120725 201.261339,479.823661 222.548596,479.823661 C224.362851,479.823661 224.476242,478.123532 224.483329,476.317144 L224.483801,475.954922 C224.483801,468.217444 218.678186,452.742487 207.066955,433.398791 C189.650108,404.383247 179.974082,363.761485 179.974082,325.074093 C179.974082,286.386701 189.650108,243.83057 207.066955,214.815026 C222.548596,189.668221 234.159827,166.455786 234.159827,162.587047 C234.159827,158.718307 226.419006,154.849568 214.807775,154.849568 Z M805.045356,187.733851 C801.174946,187.733851 799.239741,189.668221 799.239741,195.47133 C799.239741,203.208808 805.045356,212.880656 812.786177,218.683765 C816.656587,220.618135 820.526998,220.618135 822.462203,220.618135 C826.332613,220.618135 828.267819,218.683765 828.267819,212.880656 C828.267819,205.143178 820.526998,195.47133 812.786177,189.668221 C809.371109,187.961424 807.462689,187.760625 805.731521,187.737001 L805.731521,187.737001 L805.045356,187.733851 Z" id="path-1"></path>
                </g>
            </g>
            <g id="3" transform="translate(1081.000000, 0.000000)" fill="#FAFAFA" font-family="DogtownTypewriter, Dogtown Typewriter" font-size="600" font-weight="normal" stroke-width="0.05">
                <g id="text-3-link" stroke="#FFFFFF">
                    <text id="3">
                        <tspan x="0.71884" y="543">3</tspan>
                    </text>
                </g>
                <g id="text-3-link" stroke="#FFFFFF">
                    <text id="3">
                        <tspan x="0.71884" y="543">3</tspan>
                    </text>
                </g>
                <text stroke="#2EBFBC">
                    <tspan x="0.71884" y="543">3</tspan>
                </text>
            </g>
        </g>
    </g>
</svg>