<svg width="20" height="20" viewBox="0 0 20 20" fill="none" xmlns="http://www.w3.org/2000/svg">
<mask id="mask0_30_531" style="mask-type:alpha" maskUnits="userSpaceOnUse" x="0" y="0" width="20" height="20">
<rect width="20" height="20" fill="#D9D9D9"/>
</mask>
<g mask="url(#mask0_30_531)">
<path d="M15.577 15.4166H6.92325C6.5023 15.4166 6.146 15.2708 5.85433 14.9791C5.56266 14.6875 5.41683 14.3312 5.41683 13.9102V2.75644C5.41683 2.33549 5.56266 1.97919 5.85433 1.68752C6.146 1.39585 6.5023 1.25002 6.92325 1.25002H12.7085L17.0835 5.62498V13.9102C17.0835 14.3312 16.9376 14.6875 16.646 14.9791C16.3543 15.2708 15.998 15.4166 15.577 15.4166ZM12.0835 6.24998V2.5H6.92325C6.85914 2.5 6.80036 2.52671 6.74693 2.58012C6.69352 2.63356 6.66681 2.69233 6.66681 2.75644V13.9102C6.66681 13.9743 6.69352 14.0331 6.74693 14.0865C6.80036 14.14 6.85914 14.1667 6.92325 14.1667H15.577C15.6411 14.1667 15.6999 14.14 15.7534 14.0865C15.8068 14.0331 15.8335 13.9743 15.8335 13.9102V6.24998H12.0835ZM3.58991 18.75C3.16897 18.75 2.81266 18.6041 2.521 18.3125C2.22933 18.0208 2.0835 17.6645 2.0835 17.2436V6.25002H3.33348V17.2436C3.33348 17.3077 3.36018 17.3664 3.4136 17.4199C3.46703 17.4733 3.5258 17.5 3.58991 17.5H12.0835V18.75H3.58991Z" fill="white"/>
</g>
</svg>
