<svg width="20" height="20" viewBox="0 0 20 20" fill="none" xmlns="http://www.w3.org/2000/svg">
<mask id="mask0_30_513" style="mask-type:alpha" maskUnits="userSpaceOnUse" x="0" y="0" width="20" height="20">
<rect width="20" height="20" fill="#D9D9D9"/>
</mask>
<g mask="url(#mask0_30_513)">
<path d="M3.83194 17.0513C3.567 17.11 3.3389 17.0438 3.14765 16.8525C2.95641 16.6613 2.89018 16.4332 2.94894 16.1683L3.64605 12.8221L7.17805 16.3541L3.83194 17.0513ZM7.17805 16.3541L3.64605 12.8221L12.9954 3.47279C13.2828 3.1854 13.6386 3.04171 14.0627 3.04171C14.4868 3.04171 14.8426 3.1854 15.13 3.47279L16.5274 4.87021C16.8148 5.1576 16.9585 5.51336 16.9585 5.9375C16.9585 6.36164 16.8148 6.7174 16.5274 7.00479L7.17805 16.3541ZM13.8864 4.35098L5.36557 12.8638L7.1364 14.6346L15.6492 6.11379C15.6973 6.06571 15.7213 6.00561 15.7213 5.9335C15.7213 5.86138 15.6973 5.80127 15.6492 5.75319L14.247 4.35098C14.1989 4.3029 14.1388 4.27886 14.0667 4.27886C13.9946 4.27886 13.9345 4.3029 13.8864 4.35098Z" fill="white"/>
</g>
</svg>
