<svg width="16" height="16" viewBox="0 0 16 16" fill="none" xmlns="http://www.w3.org/2000/svg">
<mask id="mask0_30_552" style="mask-type:alpha" maskUnits="userSpaceOnUse" x="0" y="0" width="16" height="16">
<rect x="16" y="16" width="16" height="16" rx="0.5" transform="rotate(-180 16 16)" fill="#D9D9D9"/>
</mask>
<g mask="url(#mask0_30_552)">
<path d="M4.97961 1.91767C5.17487 1.72241 5.49145 1.72241 5.68671 1.91767L11.4155 7.64645C11.6108 7.84171 11.6108 8.15829 11.4155 8.35355L5.68671 14.0823C5.49145 14.2776 5.17487 14.2776 4.97961 14.0823L4.74058 13.8433C4.54532 13.648 4.54532 13.3315 4.74058 13.1362L9.52321 8.35355C9.71847 8.15829 9.71847 7.84171 9.52321 7.64645L4.74058 2.8638C4.54532 2.66854 4.54532 2.35196 4.74058 2.1567L4.97961 1.91767Z" fill="white"/>
</g>
</svg>
