<svg width="20" height="20" viewBox="0 0 20 20" fill="none" xmlns="http://www.w3.org/2000/svg">
<mask id="mask0_30_519" style="mask-type:alpha" maskUnits="userSpaceOnUse" x="0" y="0" width="20" height="20">
<rect width="20" height="20" fill="#D9D9D9"/>
</mask>
<g mask="url(#mask0_30_519)">
<path d="M3.58991 16.25C3.16897 16.25 2.81266 16.1041 2.521 15.8125C2.22933 15.5208 2.0835 15.1645 2.0835 14.7436V5.25644C2.0835 4.83549 2.22933 4.47919 2.521 4.18752C2.81266 3.89586 3.16897 3.75002 3.58991 3.75002H7.38795V5H3.58991C3.5258 5 3.46703 5.02671 3.4136 5.08013C3.36018 5.13356 3.33348 5.19233 3.33348 5.25644V14.7436C3.33348 14.8077 3.36018 14.8664 3.4136 14.9199C3.46703 14.9733 3.5258 15 3.58991 15H16.4104C16.4745 15 16.5333 14.9733 16.5867 14.9199C16.6401 14.8664 16.6668 14.8077 16.6668 14.7436V5.25644C16.6668 5.19233 16.6401 5.13356 16.5867 5.08013C16.5333 5.02671 16.4745 5 16.4104 5H12.6123V3.75002H16.4104C16.8313 3.75002 17.1876 3.89586 17.4793 4.18752C17.771 4.47919 17.9168 4.83549 17.9168 5.25644V14.7436C17.9168 15.1645 17.771 15.5208 17.4793 15.8125C17.1876 16.1041 16.8313 16.25 16.4104 16.25H3.58991ZM10.0001 12.625L6.12195 8.74679L7.00014 7.86863L9.37516 10.2436V3.75002H10.6251V10.2436L13.0001 7.86863L13.8783 8.74679L10.0001 12.625Z" fill="white"/>
</g>
</svg>
