<svg width="20" height="20" viewBox="0 0 20 20" fill="none" xmlns="http://www.w3.org/2000/svg">
<mask id="mask0_30_734" style="mask-type:alpha" maskUnits="userSpaceOnUse" x="0" y="0" width="20" height="20">
<rect width="20" height="20" rx="0.5" fill="#D9D9D9"/>
</mask>
<g mask="url(#mask0_30_734)">
<path d="M10.3537 16.3193C10.1579 16.5117 9.84377 16.5103 9.64972 16.3162L3.68705 10.3535C3.49179 10.1583 3.49179 9.8417 3.68705 9.64644L9.64972 3.68377C9.84377 3.48973 10.1579 3.48834 10.3537 3.68065L10.8278 4.14647C11.026 4.34121 11.0275 4.66021 10.831 4.85669L7.37455 8.31311C7.05957 8.62809 7.28265 9.16666 7.7281 9.16666H16.1668C16.443 9.16666 16.6668 9.39052 16.6668 9.66666V10.3333C16.6668 10.6095 16.443 10.8333 16.1668 10.8333H7.7281C7.28265 10.8333 7.05957 11.3719 7.37455 11.6869L10.831 15.1433C11.0275 15.3398 11.026 15.6588 10.8278 15.8535L10.3537 16.3193Z" fill="white"/>
</g>
</svg>
