<svg width="20" height="20" viewBox="0 0 20 20" fill="none" xmlns="http://www.w3.org/2000/svg">
<mask id="mask0_30_545" style="mask-type:alpha" maskUnits="userSpaceOnUse" x="0" y="0" width="20" height="20">
<rect width="20" height="20" fill="#D9D9D9"/>
</mask>
<g mask="url(#mask0_30_545)">
<path d="M8.38639 16.4359C8.06695 15.9455 7.78276 15.4124 7.53383 14.8365C7.28489 14.2607 7.08456 13.6688 6.93285 13.0609H4.10589C4.55142 13.9316 5.13636 14.6573 5.86073 15.238C6.5851 15.8186 7.42699 16.218 8.38639 16.4359ZM3.58187 11.8109H6.67964C6.6273 11.5011 6.58937 11.1974 6.56587 10.8999C6.54237 10.6023 6.53062 10.3023 6.53062 10C6.53062 9.69765 6.54237 9.3977 6.56587 9.10015C6.58937 8.80261 6.6273 8.49892 6.67964 8.18908H3.58187C3.50175 8.47221 3.44032 8.76655 3.39758 9.07211C3.35484 9.37766 3.33348 9.68696 3.33348 10C3.33348 10.313 3.35484 10.6223 3.39758 10.9279C3.44032 11.2335 3.50175 11.5278 3.58187 11.8109ZM4.10589 6.93913H6.93285C7.07388 6.32588 7.27153 5.72731 7.52581 5.14344C7.78009 4.55956 8.06695 4.03311 8.38639 3.56408C7.4537 3.77135 6.61715 4.16932 5.87675 4.758C5.13636 5.34668 4.54607 6.07372 4.10589 6.93913ZM8.21648 6.93913H11.7838C11.6011 6.25857 11.3645 5.63143 11.0739 5.05771C10.7833 4.48399 10.4254 3.91507 10.0001 3.35096C9.57492 3.8937 9.21968 4.45192 8.93443 5.02565C8.64917 5.59937 8.40985 6.2372 8.21648 6.93913ZM13.0674 6.93913H15.8944C15.4542 6.07372 14.8639 5.34535 14.1235 4.754C13.3831 4.16265 12.5466 3.76601 11.6139 3.56408C11.9066 4.02776 12.1801 4.55154 12.4344 5.13542C12.6887 5.71929 12.8997 6.32053 13.0674 6.93913ZM10.0001 17.9166C8.91467 17.9166 7.89037 17.7086 6.92725 17.2924C5.96411 16.8763 5.12409 16.3098 4.4072 15.5929C3.69033 14.876 3.12383 14.036 2.7077 13.0729C2.29157 12.1098 2.0835 11.0855 2.0835 10C2.0835 8.90599 2.29157 7.87955 2.7077 6.92069C3.12383 5.96183 3.69033 5.12395 4.4072 4.40706C5.12409 3.69019 5.96411 3.12369 6.92725 2.70756C7.89037 2.29142 8.91467 2.08335 10.0001 2.08335C11.0942 2.08335 12.1206 2.29142 13.0795 2.70756C14.0383 3.12369 14.8762 3.69019 15.5931 4.40706C16.31 5.12395 16.8765 5.96183 17.2926 6.92069C17.7087 7.87955 17.9168 8.90599 17.9168 10C17.9168 10.1442 17.9133 10.2911 17.9064 10.4407C17.8994 10.5903 17.8863 10.7372 17.8671 10.8814H16.5963C16.6241 10.7372 16.6428 10.5924 16.6524 10.4471C16.662 10.3018 16.6668 10.1528 16.6668 10C16.6668 9.68696 16.6454 9.37766 16.6027 9.07211C16.56 8.76655 16.4985 8.47221 16.4184 8.18908H13.3206C13.373 8.49892 13.4109 8.80261 13.4344 9.10015C13.4579 9.3977 13.4697 9.69765 13.4697 10C13.4697 10.1528 13.4683 10.3005 13.4657 10.4431C13.463 10.5857 13.4547 10.7318 13.4408 10.8814H12.1909C12.2047 10.7372 12.213 10.5924 12.2157 10.4471C12.2184 10.3018 12.2197 10.1528 12.2197 10C12.2197 9.68696 12.208 9.38434 12.1845 9.09215C12.1609 8.79994 12.123 8.49892 12.0707 8.18908H7.92962C7.87727 8.49892 7.83934 8.79994 7.81583 9.09215C7.79233 9.38434 7.78058 9.68696 7.78058 10C7.78058 10.313 7.79233 10.6157 7.81583 10.9079C7.83934 11.2001 7.87727 11.5011 7.92962 11.8109H10.8816V13.0609H8.21648C8.40985 13.7575 8.65318 14.3993 8.94646 14.9864C9.23972 15.5734 9.59095 16.1277 10.0001 16.649C10.1636 16.4322 10.3174 16.2105 10.4617 15.984C10.6059 15.7575 10.7459 15.5262 10.8816 15.2901V17.867C10.7373 17.8862 10.5926 17.8993 10.4473 17.9062C10.302 17.9132 10.1529 17.9166 10.0001 17.9166ZM16.6251 17.516L13.9585 14.8493V17H12.7085V12.7084H17.0001V13.9583H14.8286L17.4953 16.625L16.6251 17.516Z" fill="white"/>
</g>
</svg>
