<svg width="80" height="80" viewBox="0 0 80 80" fill="none" xmlns="http://www.w3.org/2000/svg">
<g opacity="0.6">
<mask id="mask0_67_497" style="mask-type:alpha" maskUnits="userSpaceOnUse" x="0" y="0" width="80" height="80">
<rect width="80" height="80" fill="#D9D9D9"/>
</mask>
<g mask="url(#mask0_67_497)">
<path d="M23.333 70C21.4997 70 19.9302 69.3472 18.6247 68.0417C17.3191 66.7361 16.6663 65.1667 16.6663 63.3333V20H13.333V13.3333H29.9997V10H49.9997V13.3333H66.6663V20H63.333V63.3333C63.333 65.1667 62.6802 66.7361 61.3747 68.0417C60.0691 69.3472 58.4997 70 56.6663 70H23.333ZM56.6663 20H23.333V63.3333H56.6663V20ZM29.9997 56.6667H36.6663V26.6667H29.9997V56.6667ZM43.333 56.6667H49.9997V26.6667H43.333V56.6667Z" fill="white"/>
</g>
</g>
</svg>
