<svg width="25" height="24" viewBox="0 0 25 24" fill="none" xmlns="http://www.w3.org/2000/svg">
<rect width="25" height="24" rx="2" fill="#E7E7E7"/>
<path d="M12.5 18C12.0875 18 11.7344 17.8531 11.4406 17.5594C11.1469 17.2656 11 16.9125 11 16.5C11 16.0875 11.1469 15.7344 11.4406 15.4406C11.7344 15.1469 12.0875 15 12.5 15C12.9125 15 13.2656 15.1469 13.5594 15.4406C13.8531 15.7344 14 16.0875 14 16.5C14 16.9125 13.8531 17.2656 13.5594 17.5594C13.2656 17.8531 12.9125 18 12.5 18ZM12.5 13.5C12.0875 13.5 11.7344 13.3531 11.4406 13.0594C11.1469 12.7656 11 12.4125 11 12C11 11.5875 11.1469 11.2344 11.4406 10.9406C11.7344 10.6469 12.0875 10.5 12.5 10.5C12.9125 10.5 13.2656 10.6469 13.5594 10.9406C13.8531 11.2344 14 11.5875 14 12C14 12.4125 13.8531 12.7656 13.5594 13.0594C13.2656 13.3531 12.9125 13.5 12.5 13.5ZM12.5 9C12.0875 9 11.7344 8.85313 11.4406 8.55938C11.1469 8.26562 11 7.9125 11 7.5C11 7.0875 11.1469 6.73438 11.4406 6.44063C11.7344 6.14688 12.0875 6 12.5 6C12.9125 6 13.2656 6.14688 13.5594 6.44063C13.8531 6.73438 14 7.0875 14 7.5C14 7.9125 13.8531 8.26562 13.5594 8.55938C13.2656 8.85313 12.9125 9 12.5 9Z" fill="#1C1B1F"/>
</svg>
